<?xml version="1.0" encoding="utf-8"?>
<svg viewBox="0 0 500 500" xmlns="http://www.w3.org/2000/svg">
  <path d="M 500 250 C 500 388.071 388.071 500 250 500 C 111.929 500 0 388.071 0 250 C 0 111.929 111.929 0 250 0 C 388.071 0 500 111.929 500 250 Z M 144.047 450.512 C 147.297 454.611 151.918 456.66 157.908 456.66 L 341.84 456.66 C 347.823 456.66 352.483 454.611 355.821 450.512 C 359.16 446.413 360.829 441.707 360.829 436.402 C 360.829 430.454 359.376 425.271 356.468 420.847 C 353.559 416.427 348.856 414.214 342.355 414.214 L 280.017 414.214 L 280.017 85.777 L 342.355 85.777 C 348.856 85.777 353.559 83.566 356.468 79.144 C 359.376 74.729 360.829 69.544 360.829 63.591 C 360.829 58.289 359.16 53.588 355.821 49.489 C 352.483 45.389 347.823 43.34 341.84 43.34 L 157.908 43.34 C 151.918 43.34 147.297 45.389 144.047 49.489 C 140.796 53.588 139.171 58.289 139.171 63.591 C 139.171 69.544 140.584 74.729 143.411 79.144 C 146.23 83.566 150.89 85.777 157.393 85.777 L 219.982 85.777 L 219.982 414.214 L 157.393 414.214 C 150.89 414.214 146.23 416.427 143.411 420.847 C 140.584 425.271 139.171 430.454 139.171 436.402 C 139.171 441.707 140.796 446.413 144.047 450.512 Z" style="fill: rgb(168, 213, 222);"/>
</svg>